<svg xmlns="http://www.w3.org/2000/svg" width="200" height="60" viewBox="0 0 602.28 180.994">
  <path d="M373.642 141.939c-34.999 25.797-85.729 39.561-129.406 39.561-61.243 0-116.377-22.651-158.088-60.325-3.277-2.963-.341-7 3.592-4.693 45.014 26.191 100.673 41.947 158.166 41.947 38.775 0 81.43-8.022 120.65-24.67 5.925-2.517 10.88 3.88 5.086 8.18" fill="#f90"/>
  <path d="M388.193 125.076c-4.457-5.715-29.573-2.7-40.846-1.363-3.434.42-3.959-2.57-.865-4.719 20.003-14.078 52.827-10.015 56.655-5.296 3.828 4.745-.996 37.647-19.793 53.352-2.884 2.411-5.637 1.127-4.352-2.071 4.22-10.539 13.685-34.161 9.2-39.903" fill="#f90"/>
  <path d="M348.133 19.82v-13.685c0-2.071 1.573-3.461 3.461-3.461h61.269c1.966 0 3.539 1.416 3.539 3.461v11.719c-.026 1.966-1.678 4.536-4.614 8.599l-31.749 45.329c11.798-.288 24.25 1.468 34.947 7.498 2.412 1.363 3.067 3.356 3.251 5.322v14.603c0 1.992-2.202 4.326-4.509 3.12-18.85-9.884-43.887-10.959-64.729.105-2.124 1.154-4.352-1.154-4.352-3.146v-13.869c0-2.228.026-6.03 2.255-9.412l36.782-52.748h-32.011c-1.966 0-3.539-1.389-3.539-3.434" fill="#221f1f"/>
  <path d="M124.635 105.208h-18.64c-1.783-.131-3.198-1.468-3.329-3.172v-95.763c0-1.914 1.599-3.434 3.592-3.434h17.382c1.809.079 3.251 1.468 3.382 3.198v12.505h.341c4.536-12.086 13.056-17.723 24.539-17.723 11.666 0 18.955 5.637 24.198 17.723 4.509-12.086 14.76-17.723 25.745-17.723 7.813 0 16.359 3.225 21.576 10.461 5.899 8.049 4.693 19.741 4.693 29.992l-.026 60.377c0 1.914-1.599 3.461-3.592 3.461h-18.614c-1.861-.131-3.356-1.625-3.356-3.461v-50.703c0-4.037.367-14.105-.524-17.932-1.389-6.423-5.558-8.232-10.959-8.232-4.509 0-9.228 3.015-11.142 7.839-1.914 4.824-1.73 12.899-1.73 18.326v50.703c0 1.914-1.599 3.461-3.592 3.461h-18.614c-1.888-.131-3.356-1.625-3.356-3.461l-.026-50.703c0-10.67 1.757-26.374-11.483-26.374-13.397 0-12.872 15.311-12.872 26.374v50.703c0 1.914-1.599 3.461-3.592 3.461" fill="#221f1f"/>
  <path d="M469.15 1.16c27.659 0 42.628 23.752 42.628 53.955 0 29.179-16.543 52.329-42.628 52.329-27.161 0-41.947-23.752-41.947-53.351 0-29.782 14.97-52.933 41.947-52.933m.157 19.532c-13.737 0-14.603 18.719-14.603 30.385 0 11.693-.184 36.651 14.445 36.651 14.445 0 15.127-20.135 15.127-32.404 0-8.075-.341-17.723-2.778-25.378-2.097-6.659-6.266-9.255-12.191-9.255" fill="#221f1f"/>
  <path d="M548.167 105.208h-18.562c-1.861-.131-3.356-1.625-3.356-3.461l-.026-95.691c.157-1.757 1.704-3.12 3.592-3.12h17.277c1.625.079 2.962 1.18 3.33 2.674v14.629h.341c5.217-13.108 12.506-19.374 25.352-19.374 8.363 0 16.517 3.015 21.76 11.273 4.876 7.655 4.876 20.528 4.876 29.782v60.22c-.21 1.678-1.757 3.015-3.592 3.015h-18.693c-1.704-.131-3.12-1.389-3.303-3.015v-51.986c0-10.461 1.206-25.771-11.667-25.771-4.535 0-8.704 3.041-10.775 7.655-2.622 5.846-2.962 11.667-2.962 18.116v51.764c-.026 1.914-1.652 3.461-3.592 3.461" fill="#221f1f"/>
</svg>
