<svg xmlns="http://www.w3.org/2000/svg" width="200" height="60" viewBox="0 0 200 60">
  <g fill="none" fill-rule="evenodd">
    <path fill="#0000A4" d="M163.8,16.6 C163.8,25.5 156.7,32.6 147.8,32.6 C138.9,32.6 131.8,25.5 131.8,16.6 C131.8,7.7 138.9,0.6 147.8,0.6 C156.7,0.6 163.8,7.7 163.8,16.6"/>
    <path fill="#FFF" d="M147.8,7.7 C142.9,7.7 138.9,11.7 138.9,16.6 C138.9,21.5 142.9,25.5 147.8,25.5 C152.7,25.5 156.7,21.5 156.7,16.6 C156.7,11.7 152.7,7.7 147.8,7.7 M147.8,28.4 C141.3,28.4 136,23.1 136,16.6 C136,10.1 141.3,4.8 147.8,4.8 C154.3,4.8 159.6,10.1 159.6,16.6 C159.6,23.1 154.3,28.4 147.8,28.4"/>
    <path fill="#FF6600" d="M35.2,42.3 L35.2,9.5 L22.1,9.5 L22.1,48.2 C22.1,53.1 25.4,56.4 30.3,56.4 L49.2,56.4 L49.2,42.3 L35.2,42.3 Z M67.5,42.3 L67.5,9.5 L54.4,9.5 L54.4,48.2 C54.4,53.1 57.7,56.4 62.6,56.4 L81.5,56.4 L81.5,42.3 L67.5,42.3 Z M98.9,27.9 C105.3,27.9 105.3,23.7 105.3,20.7 C105.3,17.7 105.3,13.6 98.9,13.6 L87.3,13.6 L87.3,27.9 L98.9,27.9 Z M98.9,56.4 C111.2,56.4 118.4,50.6 118.4,36.7 C118.4,22.8 111.2,17 98.9,17 L87.3,41.9 L87.3,56.4 L98.9,56.4 Z"/>
  </g>
</svg>
